<?xml version="1.0" standalone="no"?>
<!DOCTYPE svg PUBLIC "-//W3C//DTD SVG 20010904//EN"
 "http://www.w3.org/TR/2001/REC-SVG-20010904/DTD/svg10.dtd">
<svg version="1.0" xmlns="http://www.w3.org/2000/svg"
 width="135.000000pt" height="135.000000pt" viewBox="0 0 135.000000 135.000000"
 preserveAspectRatio="xMidYMid meet">
<metadata>
Created by potrace 1.14, written by Peter Selinger 2001-2017
</metadata>
<g transform="translate(0.000000,135.000000) scale(0.100000,-0.100000)"
fill="#000000" stroke="none">
<path d="M219 1347 c0 -1 -1 -253 -1 -559 -1 -560 0 -588 32 -588 5 0 8 239 8
531 0 292 3 533 6 536 3 3 49 -19 103 -50 54 -30 116 -65 138 -77 67 -37 65
-31 65 -176 0 -124 1 -134 20 -144 20 -11 20 -9 18 150 l-3 161 -192 109
c-106 60 -193 108 -194 107z"/>
<path d="M990 1264 c-80 -46 -158 -90 -175 -98 -65 -30 -65 -31 -66 -156 -1
-63 -1 -135 0 -159 1 -43 1 -44 21 -26 18 16 20 31 20 149 l1 131 152 86 152
85 3 -538 c1 -296 6 -538 11 -538 29 0 31 34 29 587 l-3 560 -145 -83z"/>
<path d="M390 487 c0 -341 1 -355 20 -372 24 -22 22 -63 21 343 l0 313 69 -38
70 -38 0 -328 c0 -271 2 -331 14 -343 8 -8 17 -14 20 -14 4 0 5 160 4 357 l-3
356 -70 39 c-38 21 -87 47 -107 58 l-38 20 0 -353z"/>
<path d="M865 790 c-44 -27 -88 -54 -98 -62 -18 -12 -19 -35 -18 -358 0 -190
0 -349 0 -353 1 -4 10 -3 21 3 19 10 20 21 20 343 l0 333 63 36 c34 20 63 35
65 33 2 -2 4 -152 4 -334 1 -318 2 -330 20 -320 10 5 18 20 19 32 1 27 1 679
0 690 -1 12 -12 7 -96 -43z"/>
</g>
</svg>
